HIERARCHY
ROOT Hips
{
	OFFSET 0.000000 0.000000 0.000000
	CHANNELS 6 Xposition Yposition Zposition Zrotation Yrotation Xrotation 
	JOINT LHipJoint
	{
		OFFSET 0.000000 0.000000 0.000000
		CHANNELS 3 Zrotation Yrotation Xrotation
		JOINT LeftUpLeg
		{
			OFFSET 1.363060 -1.794630 0.839290
			CHANNELS 3 Zrotation Yrotation Xrotation
			JOINT LeftLeg
			{
				OFFSET 2.448110 -6.726130 0.000000
				CHANNELS 3 Zrotation Yrotation Xrotation
				JOINT LeftFoot
				{
					OFFSET 2.562200 -7.039590 0.000000
					CHANNELS 3 Zrotation Yrotation Xrotation
					JOINT LeftToeBase
					{
						OFFSET 0.157640 -0.433110 2.322550
						CHANNELS 3 Zrotation Yrotation Xrotation
						End Site
						{
							OFFSET 0.000000 0.000000 0.000000
						}
					}
				}
			}
		}
	}
	JOINT RHipJoint
	{
		OFFSET 0.000000 0.000000 0.000000
		CHANNELS 3 Zrotation Yrotation Xrotation
		JOINT RightUpLeg
		{
			OFFSET -1.305520 -1.794630 0.839290
			CHANNELS 3 Zrotation Yrotation Xrotation
			JOINT RightLeg
			{
				OFFSET -2.542530 -6.985550 0.000000
				CHANNELS 3 Zrotation Yrotation Xrotation
				JOINT RightFoot
				{
					OFFSET -2.568260 -7.056230 0.000000
					CHANNELS 3 Zrotation Yrotation Xrotation
					JOINT RightToeBase
					{
						OFFSET -0.164730 -0.452590 2.363150
						CHANNELS 3 Zrotation Yrotation Xrotation
						End Site
						{
							OFFSET 0.000000 0.000000 0.000000
						}
					}
				}
			}
		}
	}
}
MOTION
Frames: 22
Frame Time: 0.008333
-10.823390 16.832279 2.417541 -67.606078 85.927355 -45.099440 -11.863486 1.512791 -3.151620 -2.816576 3.276316 -5.382720 -0.698458 1.633639 28.142547 0.587856 2.172675 3.553023 0.341500 0.000000 -75.688800 7.694753 0.249552 0.547646 6.191990 7.306686 -40.645456 2.679923 -1.133956 17.688291 0.457604 2.782667 6.977842 0.235500 0.000000 -46.602000
-10.661999 16.819301 2.428026 -72.698609 85.557304 -50.316814 -12.039247 1.434337 -3.238819 -2.078759 3.501432 -5.957021 -0.519610 1.793876 30.289446 0.648858 2.309261 4.625796 0.367600 -0.000000 -74.976900 7.555791 0.132079 0.451441 6.805553 7.805746 -40.755288 2.604640 -1.339621 20.016617 0.309579 2.057412 5.719145 0.018000 -0.000000 -45.371300
-10.504340 16.813897 2.439330 -77.923533 85.267936 -55.663445 -12.207424 1.347215 -3.315387 -1.428332 3.672784 -6.704632 -0.338984 1.953573 32.604682 0.730042 2.557631 5.764245 0.416600 0.000000 -73.240700 7.436403 0.034186 0.318578 7.408881 8.043194 -40.678377 2.557863 -1.498995 21.927019 0.168151 1.396265 4.416354 -0.155900 -0.000000 -44.882100
-10.350378 16.815729 2.451910 -83.481652 85.058453 -61.341739 -12.362926 1.253986 -3.377185 -0.889067 3.785086 -7.611432 -0.161494 2.108722 35.047591 0.834815 2.976580 6.893083 0.507200 0.000000 -70.456600 7.341747 -0.045722 0.150226 7.983179 8.002815 -40.431936 2.540851 -1.617482 23.428226 0.043126 0.849308 3.130856 -0.276900 0.000000 -45.069801
-10.199750 16.824263 2.465986 -89.497947 84.917739 -67.474416 -12.501346 1.156873 -3.423510 -0.479344 3.841230 -8.659109 0.007945 2.256855 37.571495 0.964617 3.619161 7.935662 0.661000 0.000000 -66.695400 7.276146 -0.108627 -0.051654 8.509809 7.684967 -40.042977 2.550895 -1.701829 24.551826 -0.057113 0.452707 1.926655 -0.344701 -0.000000 -45.793600
-10.052160 16.838698 2.481537 -96.021468 84.823820 -74.112453 -12.622896 1.057347 -3.454578 -0.203576 3.856773 -9.827543 0.165890 2.396747 40.130696 1.118895 4.519933 8.822980 0.895600 -0.000000 -62.139500 7.239498 -0.158040 -0.280604 8.976117 7.112496 -39.541830 2.582579 -1.759039 25.345434 -0.127241 0.220584 0.866193 -0.367800 0.000000 -46.873099
-9.907087 16.858214 2.498330 -102.955367 84.752370 -81.157115 -12.725696 0.957402 -3.473204 -0.066318 3.848126 -11.091510 0.309789 2.528125 42.672220 1.296743 5.698803 9.506772 1.222300 0.000000 -57.070600 7.232850 -0.194976 -0.529640 9.367820 6.323133 -38.963913 2.627864 -1.796597 25.870895 -0.164689 0.152268 0.001940 -0.357701 -0.000000 -48.119099
-9.764117 16.882082 2.516081 -110.077333 84.681654 -88.384403 -12.806572 0.858663 -3.484427 -0.067610 3.833845 -12.422123 0.438245 2.650991 45.141787 1.496789 7.151999 9.962292 1.641000 -0.000000 -51.835401 7.257288 -0.219459 -0.790490 9.673014 5.369787 -38.344727 2.677442 -1.822062 26.197655 -0.170653 0.229850 -0.629899 -0.326301 0.000000 -49.364600
-9.622920 16.909623 2.534095 -117.074453 84.594831 -95.480457 -12.865207 0.760962 -3.494187 -0.194572 3.837991 -13.792195 0.551016 2.765097 47.491456 1.716254 8.843514 10.182258 2.136099 0.000000 -46.773500 7.309749 -0.233760 -1.051805 9.888577 4.322637 -37.713987 2.722468 -1.841913 26.391855 -0.150647 0.416300 -1.010945 -0.284300 -0.000001 -50.490500
-9.483017 16.940219 2.551434 -123.647733 84.478273 -102.132964 -12.903604 0.661402 -3.504458 -0.421236 3.876610 -15.199135 0.648962 2.869434 49.689688 1.950751 10.709878 10.171421 2.677800 -0.000000 -42.168300 7.383120 -0.242893 -1.297709 10.024805 3.261454 -37.110189 2.756208 -1.860652 26.508815 -0.113871 0.658894 -1.141547 -0.240400 0.000000 -51.422200
-9.344366 16.973496 2.567426 -129.513215 84.342153 -108.054695 -12.920591 0.559314 -3.520884 -0.735538 3.963144 -16.624849 0.731956 2.963432 51.704790 2.193625 12.669858 9.938114 3.226700 0.000000 -38.142099 7.473566 -0.248075 -1.517918 10.082587 2.253865 -36.556535 2.772560 -1.882594 26.603309 -0.069153 0.914944 -1.048900 -0.198400 -0.000000 -52.134101
-9.207026 17.009395 2.581386 -134.459154 84.202091 -113.039555 -12.916371 0.452874 -3.553005 -1.117592 4.117331 -18.040486 0.799671 3.046907 53.504241 2.436114 14.627051 9.505340 3.738800 -0.000000 -34.800300 7.575573 -0.251427 -1.706430 10.070083 1.363060 -36.049486 2.768032 -1.909541 26.706014 -0.025544 1.142086 -0.771431 -0.161201 0.000000 -52.650100
-9.070995 17.047572 2.592725 -138.493221 84.072665 -117.084213 -12.894560 0.341358 -3.598811 -1.551550 4.334750 -19.459194 0.851991 3.120087 55.087711 2.667133 16.477300 8.872061 4.163300 -0.000001 -31.940699 7.681733 -0.255690 -1.854944 9.999176 0.628621 -35.610114 2.742517 -1.941566 26.841556 0.010343 1.311699 -0.358953 -0.131000 0.000000 -53.015500
-8.936402 17.088133 2.601090 -141.612846 83.966170 -120.195150 -12.857295 0.223968 -3.663189 -2.017728 4.619857 -20.859047 0.888591 3.183214 56.434807 2.876424 18.127168 8.084856 4.466600 0.000000 -29.664800 7.786490 -0.262555 -1.964339 9.883380 0.077654 -35.214498 2.697795 -1.976504 27.003118 0.033821 1.403432 0.145198 -0.110400 0.000000 -53.319100
-8.803389 17.130929 2.606348 -143.928702 83.889238 -122.485541 -12.807519 0.101702 -3.744925 -2.503401 4.961820 -22.238114 0.908814 3.237527 57.546901 3.053538 19.494812 7.164402 4.620900 -0.000000 -27.775999 7.885334 -0.272507 -2.037559 9.734706 -0.289175 -34.849359 2.637692 -2.011735 27.179420 0.043584 1.414542 0.700145 -0.100900 -0.000000 -53.654400
-8.671911 17.175836 2.608707 -145.592443 83.841454 -124.113062 -12.746576 -0.023467 -3.840358 -3.000298 5.341681 -23.589919 0.912453 3.283302 58.423269 3.191008 20.527226 6.156434 4.622500 0.000000 -26.250900 7.976688 -0.285143 -2.080963 9.562447 -0.491226 -34.492662 2.567087 -2.044278 27.347191 0.040725 1.354143 1.276327 -0.102800 -0.000000 -54.111100
-8.541928 17.222585 2.608528 -146.777566 83.816140 -125.258294 -12.675796 -0.149205 -3.944629 -3.502481 5.736852 -24.908515 0.899329 3.320983 59.068705 3.283867 21.196953 5.100953 4.483400 -0.000000 -25.005600 8.060075 -0.299699 -2.103280 9.374929 -0.561433 -34.119744 2.491333 -2.071323 27.477812 0.027966 1.239143 1.855667 -0.115100 0.000000 -54.757000
-8.413272 17.270760 2.606208 -147.669928 83.802084 -126.113131 -12.596541 -0.273327 -4.051785 -4.006595 6.122247 -26.188642 0.869589 3.350740 59.491029 3.330723 21.506382 4.035713 4.230000 0.000000 -23.962500 8.135850 -0.315322 -2.114322 9.178964 -0.541275 -33.707778 2.415513 -2.090700 27.542933 0.008709 1.089352 2.430473 -0.135400 -0.000001 -55.623701
-8.285596 17.319872 2.602301 -148.477286 83.786781 -126.890658 -12.509324 -0.393134 -4.153931 -4.514432 6.470388 -27.424977 0.823929 3.371690 59.697662 3.334151 21.487462 2.997330 3.898900 -0.000000 -23.087500 8.206051 -0.331205 -2.122847 8.977442 -0.477235 -33.238564 2.343718 -2.101107 27.519211 -0.013443 0.925664 3.000558 -0.160600 -0.000000 -56.697400
-8.158535 17.369281 2.597286 -149.389207 83.758226 -127.783829 -12.415184 -0.506593 -4.243578 -5.029424 6.756819 -28.613672 0.763367 3.382839 59.697547 3.300098 21.194088 2.010094 3.526600 0.000001 -22.330000 8.272340 -0.346809 -2.136426 8.771979 -0.412473 -32.700590 2.278771 -2.102088 27.391199 -0.035499 0.765107 3.571368 -0.187500 0.000001 -57.926200
-8.031582 17.418258 2.591491 -150.554444 83.705285 -128.940926 -12.315491 -0.612554 -4.314258 -5.555382 6.961876 -29.752693 0.689156 3.383059 59.499521 3.237222 20.694941 1.085485 3.144400 0.000000 -21.643900 8.335722 -0.361971 -2.160695 8.563714 -0.382218 -32.090733 2.222147 -2.093945 27.153266 -0.055579 0.618170 4.150258 -0.213600 0.000000 -59.230100
-7.904245 17.466066 2.585124 -152.070570 83.620155 -130.459475 -12.211196 -0.709304 -4.359690 -6.098024 7.071634 -30.838501 0.602686 3.370754 59.109166 3.155912 20.066084 0.225828 2.775500 0.000000 -21.003100 8.397450 -0.376800 -2.198022 8.351330 -0.412769 -31.411994 2.173744 -2.077586 26.810540 -0.072720 0.490384 4.744445 -0.237500 0.000000 -60.519500
